Coordinates
version=1
nRows=9
nColumns=63
inDegrees=yes

Units are S.I. units (second, meters, Newtons, ...)
If the header above contains a line with 'inDegrees', this indicates whether rotational values are in degrees (yes) or radians (no).

endheader
time	pelvis_tilt	pelvis_list	pelvis_rotation	pelvis_tx	pelvis_ty	pelvis_tz	hip_flexion_r	hip_adduction_r	hip_rotation_r	knee_angle_r	knee_angle_r_beta	ankle_angle_r	subtalar_angle_r	mtp_angle_r	hip_flexion_l	hip_adduction_l	hip_rotation_l	knee_angle_l	knee_angle_l_beta	ankle_angle_l	subtalar_angle_l	mtp_angle_l	L5_S1_Flex_Ext	L5_S1_Lat_Bending	L5_S1_axial_rotation	L4_L5_Flex_Ext	L4_L5_Lat_Bending	L4_L5_axial_rotation	L3_L4_Flex_Ext	L3_L4_Lat_Bending	L3_L4_axial_rotation	L2_L3_Flex_Ext	L2_L3_Lat_Bending	L2_L3_axial_rotation	L1_L2_Flex_Ext	L1_L2_Lat_Bending	L1_L2_axial_rotation	L1_T12_Flex_Ext	L1_T12_Lat_Bending	L1_T12_axial_rotation	Abs_r3	Abs_r2	Abs_r1	Abs_t1	Abs_t2	neck_flexion	neck_bending	neck_rotation	arm_flex_r	arm_add_r	arm_rot_r	elbow_flex_r	pro_sup_r	wrist_flex_r	wrist_dev_r	arm_flex_l	arm_add_l	arm_rot_l	elbow_flex_l	pro_sup_l	wrist_flex_l	wrist_dev_l
3.474576	4.349244	0.136754	101.125961	0.274567	0.855875	0.568032	-5.185949	5.676955	-13.717751	3.617139	0.063131	22.707743	-0.753099	0.000000	-2.427714	-6.760376	4.284331	2.529267	0.044144	29.956321	7.899085	0.000000	0.311100	0.401625	-2.506138	0.577744	0.534161	-2.662772	0.511106	0.976511	-2.662772	0.355556	0.976511	-2.192871	0.288888	0.818993	-2.036237	0.177763	0.622117	-1.879603	2.222157	4.543260	-13.938387	0.000000	0.000000	28.299449	1.066847	8.251668	20.967455	-11.962141	54.362545	51.054648	60.548019	14.126802	11.819276	9.167622	-13.843982	36.102168	58.772696	69.974336	15.743355	4.396257
3.491525	4.193507	0.158631	101.361347	0.274431	0.855856	0.568011	-5.251110	5.553748	-14.156301	3.580893	0.062498	22.939333	-0.381427	0.000000	-2.430817	-6.629949	4.607113	2.499148	0.043618	29.927697	8.007848	0.000000	0.310572	0.392287	-2.468990	0.576764	0.521742	-2.623302	0.510239	0.953808	-2.623302	0.354953	0.953808	-2.160366	0.288397	0.799952	-2.006055	0.177461	0.607653	-1.851743	2.218387	4.437633	-13.731783	0.000000	0.000000	28.298777	0.245664	7.422863	20.780344	-11.804342	53.626934	51.178453	60.333385	13.207136	12.434629	9.660251	-13.946711	36.540222	58.539058	68.993075	15.192409	4.191214
3.508475	4.062219	0.191403	101.628866	0.274275	0.855824	0.567942	-5.331863	5.473909	-14.295581	3.475465	0.060658	23.111922	-0.394153	0.000000	-2.439627	-6.529296	4.968912	2.465707	0.043035	29.893771	8.031725	0.000000	0.311289	0.383800	-2.415850	0.578094	0.510453	-2.566841	0.511416	0.933170	-2.566841	0.355772	0.933170	-2.113869	0.289063	0.782644	-1.962878	0.177870	0.594506	-1.811888	2.223504	4.341618	-13.436235	0.000000	0.000000	28.297677	-0.722047	6.316759	20.509963	-11.673976	52.710683	51.334603	60.506539	12.351137	12.913835	10.150449	-13.951171	36.909989	58.255629	68.099567	14.327840	3.843711
3.525424	3.965550	0.238236	101.960933	0.274044	0.855780	0.567802	-5.426581	5.449670	-14.202339	3.307951	0.057735	23.234705	-0.745577	0.000000	-2.449491	-6.470397	5.421338	2.430059	0.042413	29.856656	7.951275	0.000000	0.314494	0.377898	-2.365709	0.584047	0.502604	-2.513566	0.516682	0.918820	-2.513566	0.359435	0.918820	-2.069996	0.292039	0.770609	-1.922139	0.179702	0.585363	-1.774282	2.246398	4.274854	-13.157365	0.000000	0.000000	28.297177	-1.740881	5.073337	20.236568	-11.555637	51.792848	51.470193	60.985741	11.568312	13.153064	10.571271	-13.860678	37.105475	57.956747	67.294665	13.198658	3.353196
3.542373	3.894923	0.308553	102.337876	0.273783	0.855738	0.567602	-5.537275	5.471021	-13.988216	3.102967	0.054157	23.337024	-1.277288	0.000000	-2.471981	-6.449704	5.870330	2.404121	0.041960	29.839377	7.869024	0.000000	0.318778	0.373486	-2.312744	0.592003	0.496736	-2.457291	0.523721	0.908093	-2.457291	0.364332	0.908093	-2.023651	0.296017	0.761612	-1.879105	0.182150	0.578529	-1.734558	2.277001	4.224945	-12.862791	0.000000	0.000000	28.297383	-2.799634	3.702528	19.969920	-11.447882	50.868305	51.589775	61.553560	10.910673	13.246751	10.964301	-13.724333	37.264389	57.666022	66.456109	11.752025	2.711616
3.559322	3.866322	0.393459	102.748572	0.273467	0.855685	0.567359	-5.645348	5.544001	-13.730576	2.879933	0.050264	23.419330	-1.899635	0.000000	-2.495427	-6.476324	6.328788	2.389778	0.041709	29.839509	7.747551	0.000000	0.326104	0.373297	-2.264757	0.605608	0.496486	-2.406304	0.535756	0.907635	-2.406304	0.372704	0.907635	-1.981662	0.302820	0.761228	-1.840115	0.186336	0.578238	-1.698567	2.329329	4.222815	-12.595897	0.000000	0.000000	28.298759	-3.853826	2.308660	19.763507	-11.359886	50.062520	51.690014	62.121852	10.368062	13.209256	11.247203	-13.500931	37.213800	57.420357	65.670584	10.108801	1.915799
3.576271	3.873493	0.492855	103.174072	0.273126	0.855612	0.567061	-5.752708	5.662099	-13.386009	2.648851	0.046231	23.468498	-2.680228	0.000000	-2.530623	-6.544092	6.785435	2.378347	0.041510	29.864788	7.586421	0.000000	0.336331	0.376770	-2.223589	0.624601	0.501104	-2.362564	0.552559	0.916078	-2.362564	0.384393	0.916078	-1.945641	0.312317	0.768309	-1.806666	0.192180	0.583616	-1.667692	2.402381	4.262095	-12.366937	0.000000	0.000000	28.301587	-4.840502	0.979639	19.621910	-11.292784	49.370649	51.795460	63.055978	9.948263	12.923326	11.388077	-13.208335	36.898180	57.279264	65.004533	8.362431	1.075324
3.593220	3.903543	0.609993	103.622026	0.272774	0.855534	0.566774	-5.855570	5.811756	-13.042282	2.433390	0.042471	23.469998	-3.562462	0.000000	-2.569622	-6.642035	7.210981	2.385223	0.041630	29.912437	7.453205	0.000000	0.347393	0.382221	-2.188533	0.645143	0.508353	-2.325317	0.570732	0.929331	-2.325317	0.397035	0.929331	-1.914967	0.322589	0.779424	-1.778183	0.198500	0.592060	-1.641400	2.481393	4.323755	-12.171966	0.000000	0.000000	28.304333	-5.761383	-0.278821	19.562359	-11.248707	48.800082	51.901764	63.873613	9.771845	12.667275	11.450547	-12.893764	36.449711	57.218806	64.481455	6.566965	0.058794
3.610169	3.955721	0.745150	104.053652	0.272432	0.855460	0.566492	-5.952744	5.983146	-12.709806	2.250533	0.039279	23.436564	-4.489293	0.000000	-2.627334	-6.765609	7.627145	2.391808	0.041745	29.977341	7.289281	0.000000	0.358165	0.390442	-2.159054	0.665149	0.519287	-2.293995	0.588430	0.949320	-2.293995	0.409347	0.949320	-1.889172	0.332592	0.796188	-1.754232	0.204656	0.604794	-1.619291	2.558339	4.416753	-12.008012	0.000000	0.000000	28.306871	-6.547744	-1.365001	19.591814	-11.233750	48.362302	52.021003	64.979945	9.767868	12.200220	11.422655	-12.562082	35.846165	57.282188	64.099674	4.776685	-0.960644
